<?xml version="1.0" encoding="utf-8"?>
<!-- Generator: Adobe Illustrator 16.0.0, SVG Export Plug-In . SVG Version: 6.00 Build 0)  -->
<!DOCTYPE svg PUBLIC "-//W3C//DTD SVG 1.1//EN" "http://www.w3.org/Graphics/SVG/1.1/DTD/svg11.dtd">
<svg version="1.1" id="Layer_1" xmlns="http://www.w3.org/2000/svg" xmlns:xlink="http://www.w3.org/1999/xlink" x="0px" y="0px"
	 width="145px" height="194px" viewBox="0 0 145 194" enable-background="new 0 0 145 194" xml:space="preserve">
<path fill="#FFFFFF" d="M135.097,82.423c-18.366-1.524-32.283,26.226-32.283,26.226s-2.616-2.158-2.278-6.229
	c1.478-17.78,1.199-19.845,1.591-24.558c0.391-4.713,4.126-24.751,4.5-29.25c0.372-4.499,1.519-11.466,2-17.25
	c0.479-5.784,3.056-15.758-5.273-16.449c-8.329-0.691-9.873,11.415-10.477,18.699c-0.605,7.284-4.25,19.5-4.25,19.5
	c-2.524,12.901-7.197,23.816-7.331,24.585c-0.956-19.45,0.516-22.553,0.746-25.335c0.232-2.785,1.568-9.953,1.835-13.167
	c0.267-3.213,1.407-9.438,1.923-15.65c0.516-6.213,4.12-21.262-4.85-22.006c-8.97-0.744-10.025,9.198-10.292,12.411
	c-0.267,3.214,0.335,4.053-2.85,24.28c-3.186,20.227-5.677,37.277-5.677,37.277s-0.941-1.144-0.754-12.895
	c0.25-15.75,2.729-29.003,3.138-33.93c0.409-4.928,1.904-15.157-7.066-15.901c-8.969-0.745-8.228,13.769-8.816,20.839
	c-0.587,7.069-1.751,14.87-2.231,20.655c-0.481,5.784-0.537,9.96-0.698,14.477c-0.16,4.516-3.755,11.552-3.755,11.552
	s-4.572-5.275-6.692-33.342c-0.734-9.731-0.729-14.513-7.564-15.08c-6.834-0.567-5.73,17.213-5.392,20.908
	c0.339,3.695,0.459,12.874,0.677,20.332c0.232,7.907,0.481,12.335-0.284,21.546c-0.765,9.21,5.357,39.056,4.681,47.195
	c-0.676,8.141-3.862,10.25-7.99,18.535c-4.129,8.287-18.509,33.516-18.509,33.516l64.478-1.877c0,0,4.556-10.838,12.263-23.355
	c7.705-12.52,15.594-12.652,23.119-20.543c6.77-7.096,12.152-15.789,14.288-18.201c2.136-2.41,4.093-10.445,5.232-13.801
	c1.139-3.357,9.663-12.789,14.13-17.379c4.467-4.591,9.309-8.504,9.309-8.504S144.921,83.238,135.097,82.423"/>
<path fill="none" stroke="#A9A9A9" stroke-miterlimit="10" d="M135.223,81.923c-18.367-1.524-32.283,26.225-32.283,26.225
	s-2.615-2.158-2.277-6.229c1.477-17.78,1.197-19.845,1.59-24.558c0.391-4.713,4.125-24.751,4.5-29.25
	c0.373-4.499,1.518-11.466,2-17.25c0.479-5.784,3.055-15.758-5.273-16.449c-8.33-0.691-9.873,11.415-10.477,18.699
	c-0.605,7.284-4.25,19.5-4.25,19.5c-2.525,12.901-7.197,23.816-7.332,24.585c-0.955-19.45,0.516-22.553,0.748-25.335
	c0.23-2.785,1.566-9.953,1.834-13.167c0.266-3.213,1.406-9.438,1.922-15.65c0.516-6.213,4.121-21.262-4.848-22.006
	c-8.971-0.744-10.027,9.198-10.294,12.411c-0.267,3.214,0.335,4.053-2.85,24.28c-3.186,20.227-5.677,37.277-5.677,37.277
	s-0.941-1.144-0.754-12.895c0.25-15.75,2.729-29.003,3.138-33.93c0.409-4.928,1.904-15.157-7.066-15.901
	c-8.969-0.745-8.228,13.769-8.816,20.839c-0.587,7.069-1.751,14.87-2.231,20.655c-0.481,5.784-0.537,9.96-0.698,14.477
	c-0.16,4.516-3.755,11.552-3.755,11.552s-4.572-5.275-6.692-33.342c-0.734-9.731-0.729-14.513-7.564-15.08
	c-6.834-0.567-5.73,17.213-5.392,20.908c0.339,3.695,0.459,12.874,0.677,20.332c0.232,7.907,0.481,12.335-0.284,21.546
	c-0.765,9.21,5.357,39.056,4.681,47.195c-0.676,8.141-3.862,10.25-7.99,18.535C15.38,168.186,1,193.414,1,193.414l64.478-1.877
	c0,0,4.556-10.838,12.262-23.355c7.707-12.52,15.594-12.652,23.121-20.543c6.768-7.096,12.15-15.789,14.287-18.201
	c2.135-2.41,4.094-10.445,5.232-13.801c1.139-3.357,9.662-12.789,14.129-17.379c4.467-4.59,9.309-8.503,9.309-8.503
	S145.047,82.738,135.223,81.923z"/>
</svg>
