<?xml version="1.0" encoding="utf-8"?>
<!-- Generator: Adobe Illustrator 16.0.0, SVG Export Plug-In . SVG Version: 6.00 Build 0)  -->
<!DOCTYPE svg PUBLIC "-//W3C//DTD SVG 1.1//EN" "http://www.w3.org/Graphics/SVG/1.1/DTD/svg11.dtd">
<svg version="1.1" id="Layer_1" xmlns="http://www.w3.org/2000/svg" xmlns:xlink="http://www.w3.org/1999/xlink" x="0px" y="0px"
	 width="145px" height="194px" viewBox="0 0 145 194" enable-background="new 0 0 145 194" xml:space="preserve">
<path fill="#FFFFFF" d="M9.755,82.423c18.369-1.524,32.289,26.226,32.289,26.226s2.617-2.158,2.279-6.229
	c-1.478-17.78-1.2-19.845-1.591-24.558c-0.391-4.713-4.126-24.751-4.5-29.25c-0.372-4.499-1.519-11.466-2-17.25
	c-0.479-5.784-3.056-15.758,5.274-16.449c8.331-0.691,9.875,11.415,10.478,18.699c0.606,7.284,4.251,19.5,4.251,19.5
	c2.525,12.901,7.198,23.816,7.332,24.585c0.957-19.45-0.516-22.553-0.746-25.335c-0.232-2.785-1.568-9.953-1.835-13.167
	c-0.267-3.213-1.407-9.438-1.923-15.65c-0.516-6.213-4.121-21.262,4.85-22.006c8.972-0.744,10.027,9.198,10.294,12.411
	c0.268,3.214-0.334,4.053,2.852,24.28s5.678,37.277,5.678,37.277s0.941-1.144,0.754-12.895c-0.25-15.75-2.729-29.003-3.139-33.93
	c-0.409-4.928-1.904-15.157,7.067-15.901c8.971-0.745,8.229,13.769,8.817,20.839c0.587,7.069,1.751,14.87,2.23,20.655
	c0.482,5.784,0.538,9.96,0.699,14.477c0.16,4.516,3.756,11.552,3.756,11.552s4.572-5.275,6.692-33.342
	c0.734-9.731,0.729-14.513,7.565-15.08c6.835-0.567,5.73,17.213,5.393,20.908c-0.338,3.695-0.459,12.874-0.677,20.332
	c-0.232,7.907-0.481,12.335,0.284,21.546c0.766,9.21-5.357,39.056-4.682,47.195c0.676,8.141,3.862,10.25,7.991,18.535
	c4.13,8.287,18.513,33.516,18.513,33.516l-64.489-1.877c0,0-4.558-10.838-12.265-23.355c-7.707-12.52-15.597-12.652-23.123-20.543
	c-6.771-7.096-12.155-15.789-14.291-18.201c-2.136-2.41-4.094-10.445-5.233-13.801c-1.139-3.357-9.665-12.789-14.132-17.379
	c-4.467-4.591-9.31-8.504-9.31-8.504S-0.071,83.238,9.755,82.423"/>
<path fill="none" stroke="#A9A9A9" stroke-miterlimit="10" d="M9.754,81.923c18.371-1.524,32.289,26.225,32.289,26.225
	s2.616-2.158,2.278-6.229c-1.477-17.78-1.198-19.845-1.59-24.558c-0.391-4.713-4.125-24.751-4.5-29.25
	c-0.374-4.499-1.518-11.466-2-17.25c-0.479-5.784-3.055-15.758,5.274-16.449c8.332-0.691,9.875,11.415,10.478,18.699
	c0.606,7.284,4.251,19.5,4.251,19.5c2.526,12.901,7.198,23.816,7.333,24.585c0.955-19.45-0.516-22.553-0.749-25.335
	c-0.23-2.785-1.566-9.953-1.834-13.167c-0.266-3.213-1.407-9.438-1.922-15.65C58.546,16.833,54.939,1.783,63.91,1.04
	c8.973-0.744,10.028,9.198,10.295,12.411c0.268,3.214-0.334,4.053,2.852,24.28s5.678,37.277,5.678,37.277s0.941-1.144,0.754-12.895
	c-0.25-15.75-2.729-29.003-3.139-33.93c-0.409-4.928-1.904-15.157,7.067-15.901c8.971-0.745,8.229,13.769,8.817,20.839
	c0.587,7.069,1.752,14.87,2.231,20.655c0.481,5.784,0.537,9.96,0.698,14.477c0.16,4.516,3.756,11.552,3.756,11.552
	s4.572-5.275,6.693-33.342c0.734-9.731,0.729-14.513,7.564-15.08s5.731,17.213,5.393,20.908c-0.338,3.695-0.459,12.874-0.676,20.332
	c-0.232,7.907-0.481,12.335,0.283,21.546c0.766,9.21-5.357,39.056-4.682,47.195c0.676,8.141,3.863,10.25,7.991,18.535
	c4.13,8.287,18.513,33.516,18.513,33.516l-64.489-1.877c0,0-4.557-10.838-12.264-23.355c-7.708-12.52-15.597-12.652-23.125-20.543
	c-6.769-7.096-12.153-15.789-14.29-18.201c-2.135-2.41-4.095-10.445-5.233-13.801c-1.139-3.357-9.664-12.789-14.131-17.379
	C6,93.667,1.157,89.754,1.157,89.754S-0.072,82.738,9.754,81.923z"/>
</svg>
